<svg width="31" height="29" viewBox="0 0 31 29" fill="none" xmlns="http://www.w3.org/2000/svg">
<path d="M9.9375 23.25C11.1456 23.25 12.125 24.2294 12.125 25.4375C12.125 26.6456 11.1456 27.625 9.9375 27.625C8.72937 27.625 7.75 26.6456 7.75 25.4375C7.75 24.2294 8.72937 23.25 9.9375 23.25Z" stroke="black" stroke-width="2.1875"/>
<path d="M23.0625 23.25C24.2706 23.25 25.25 24.2293 25.25 25.4375C25.25 26.6456 24.2706 27.625 23.0625 27.625C21.8544 27.625 20.875 26.6456 20.875 25.4375C20.875 24.2293 21.8544 23.25 23.0625 23.25Z" stroke="black" stroke-width="2.1875"/>
<path d="M1.91663 1.375L2.29756 1.50893C4.19571 2.17628 5.14479 2.50996 5.68764 3.30435C6.23049 4.09874 6.23049 5.15392 6.23049 7.26427V11.2333C6.23049 15.5232 6.32272 16.9388 7.58622 18.2715C8.84972 19.6042 10.8833 19.6042 14.9505 19.6042H16.5M22.6839 19.6042C24.9603 19.6042 26.0986 19.6042 26.9031 18.9485C27.7077 18.2928 27.9375 17.1781 28.397 14.9484L29.1259 11.4123C29.6321 8.87621 29.8851 7.60816 29.2378 6.76657C28.5904 5.925 26.3784 5.925 23.9211 5.925H15.0759M6.23049 5.925H9.20829" stroke="black" stroke-width="2.1875" stroke-linecap="round"/>
</svg>
